<?xml version="1.0" encoding="utf-8"?>
<!-- Generator: Adobe Illustrator 18.0.0, SVG Export Plug-In . SVG Version: 6.00 Build 0)  -->
<!DOCTYPE svg PUBLIC "-//W3C//DTD SVG 1.1//EN" "http://www.w3.org/Graphics/SVG/1.1/DTD/svg11.dtd">
<svg version="1.1" id="Layer_1" xmlns="http://www.w3.org/2000/svg" xmlns:xlink="http://www.w3.org/1999/xlink" x="0px" y="0px"
	 viewBox="0 0 150 34.8" enable-background="new 0 0 150 34.8" xml:space="preserve">
<g>
	<path d="M0.4,27.7h2.8V7.4h-3V0.3h13.1v10.6c0,1.3-0.1,2.2-0.1,2.2h0.1c1.7-2.6,4.2-3.7,7.3-3.7c4,0,8.7,1.9,8.7,9.2v9.2H32v7.1
		H19.2V20.5c0-1.7-0.6-2.2-1.9-2.2c-3.1,0-4.1,2.9-4.1,5.7v3.6H16v7.1H0.4V27.7z"/>
	<path d="M49.8,17h-3V9.9h13.1v16.7c0,0.7,0.4,1.1,1.1,1.1h1.8v7.2h-8.8c-2.4,0-3.6-1.1-3.6-3.1c0-0.6,0.1-1.2,0.1-1.2h-0.1
		c0,0-1.6,4.8-7.9,4.8c-4.1,0-8.3-2.1-8.3-9.2V17h-3V9.9h13.1v14.5c0,1.7,0.6,2.3,1.8,2.3c2.6,0,3.9-2.9,3.9-6V17z"/>
	<path d="M81,17h-3V9.9h13.1v16.7c0,0.7,0.4,1.1,1.1,1.1h1.8v7.2h-8.8c-2.4,0-3.6-1.1-3.6-3.1c0-0.6,0.1-1.2,0.1-1.2h-0.1
		c0,0-1.6,4.8-7.9,4.8c-4.1,0-8.3-2.1-8.3-9.2V17h-3V9.9h13.1v14.5c0,1.7,0.6,2.3,1.8,2.3c2.6,0,3.9-2.9,3.9-6V17z"/>
	<path d="M112.2,17h-3V9.9h13.1v16.7c0,0.7,0.4,1.1,1.1,1.1h1.8v7.2h-8.8c-2.4,0-3.6-1.1-3.6-3.1c0-0.6,0.1-1.2,0.1-1.2h-0.1
		c0,0-1.6,4.8-7.9,4.8c-4.1,0-8.3-2.1-8.3-9.2V17h-3V9.9h13.1v14.5c0,1.7,0.6,2.3,1.8,2.3c2.6,0,3.9-2.9,3.9-6V17z"/>
	<path d="M138,9.3c7.6,0,12.1,5.2,12.1,11.8c0,1.4-0.2,2.7-0.2,2.7H135c0.7,2.6,2.8,3.3,4.7,3.3c3.3,0,6.8-2.2,6.8-2.2l3.5,6.9
		c0,0-4.2,3.5-11.1,3.5c-9.6,0-14-6.7-14-13.2C124.9,15.4,129.6,9.3,138,9.3z M139.8,19.6c0-1.7-0.4-3.5-2.2-3.5
		c-2.1,0-2.4,2.5-2.4,3.5H139.8z"/>
</g>
</svg>
